<svg width="303" height="303" viewBox="0 0 303 303" fill="none" xmlns="http://www.w3.org/2000/svg">
<path fill-rule="evenodd" clip-rule="evenodd" d="M43.1236 150.932V171.359H0V172.494H43.1236V192.921H0V194.056H43.1236V214.483H0V215.618H43.1236V236.045H0V237.18H43.1236L43.1236 257.607H0V258.742H43.1236L43.1236 303H44.2584L44.2584 258.742H64.6854L64.6854 303H65.8203L65.8203 258.742H86.2472L86.2472 303H87.3821L87.3821 258.742H107.809L107.809 303H108.944L108.944 258.742H129.371L129.371 303H130.506L130.506 258.742H150.933L150.933 303H152.067L152.067 258.742H172.494L172.494 303H173.629L173.629 258.742H194.056L194.056 303H195.191L195.191 258.742H215.618L215.618 303H216.753L216.753 258.742H237.18L237.18 303H238.315L238.315 258.742H258.742V303H259.876V258.742H303V257.607H259.876V237.18H303V236.045H259.876V215.618H303V214.483H259.876V194.056H303V192.921H259.876V172.494H303V171.359H259.876V150.932H303V149.798H259.876V129.371H303V128.236H259.876V107.809H303V106.674H259.876V86.2471H303V85.1123H259.876V64.6853H303V63.5505H259.876V43.1235H303V41.9887H259.876V0H258.742V41.9887L238.315 41.9887V0H237.18V41.9887H216.753V0H215.618V41.9887H195.191V0H194.056V41.9887H173.629V0H172.494V41.9887H152.067V0H150.933V41.9886H130.506V0H129.371V41.9886H108.944L108.944 0H107.809L107.809 41.9886H87.3821L87.3821 0H86.2473L86.2472 41.9886H65.8203V0H64.6855L64.6854 41.9886L44.2584 41.9886L44.2584 0H43.1236L43.1236 41.9886H0V43.1235H43.1236V63.5504H0V64.6853H43.1236V85.1122H0V86.2471H43.1236V106.674H0V107.809H43.1236V128.236H0V129.371H43.1236V149.798H0V150.932H43.1236ZM44.2584 43.1235V63.5504L64.6854 63.5504V43.1235L44.2584 43.1235ZM65.8203 43.1235V63.5504H86.2472V43.1235H65.8203ZM87.3821 43.1235V63.5504H107.809V43.1235H87.3821ZM108.944 43.1235V63.5504H129.371V43.1235H108.944ZM130.506 43.1235V63.5504H150.933V43.1235H130.506ZM152.067 43.1235V63.5504H172.494V43.1235H152.067ZM173.629 43.1235V63.5504H194.056V43.1235H173.629ZM195.191 43.1235V63.5504H215.618V43.1235H195.191ZM216.753 43.1235V63.5504H237.18V43.1235H216.753ZM238.315 43.1235V63.5504L258.742 63.5505V43.1235L238.315 43.1235ZM238.315 64.6853H258.742V85.1123H238.315V64.6853ZM216.753 64.6853L237.18 64.6853V85.1123L216.753 85.1122V64.6853ZM195.191 64.6853H215.618V85.1122H195.191V64.6853ZM173.629 64.6853H194.056V85.1122H173.629V64.6853ZM152.067 64.6853H172.494V85.1122H152.067V64.6853ZM130.506 64.6853H150.933V85.1122H130.506V64.6853ZM108.944 64.6853H129.371V85.1122H108.944V64.6853ZM87.3821 64.6853H107.809V85.1122H87.3821V64.6853ZM65.8203 64.6853L86.2472 64.6853V85.1122L65.8203 85.1122V64.6853ZM44.2584 64.6853H64.6854V85.1122H44.2584V64.6853ZM44.2584 86.2471V106.674H64.6854V86.2471H44.2584ZM65.8203 86.2471V106.674L86.2472 106.674V86.2471L65.8203 86.2471ZM87.3821 86.2471V106.674H107.809V86.2471H87.3821ZM108.944 86.2471V106.674H129.371V86.2471H108.944ZM130.506 86.2471V106.674H150.933V86.2471H130.506ZM152.067 86.2471V106.674H172.494V86.2471H152.067ZM173.629 86.2471V106.674H194.056V86.2471H173.629ZM195.191 86.2471V106.674H215.618V86.2471H195.191ZM216.753 86.2471V106.674L237.18 106.674V86.2471L216.753 86.2471ZM238.315 86.2471V106.674H258.742V86.2471H238.315ZM238.315 107.809H258.742V128.236H238.315V107.809ZM216.753 107.809L237.18 107.809V128.236H216.753V107.809ZM195.191 107.809H215.618V128.236H195.191V107.809ZM173.629 107.809H194.056V128.236H173.629V107.809ZM152.067 107.809H172.494V128.236H152.067V107.809ZM130.506 107.809H150.933V128.236H130.506V107.809ZM108.944 107.809H129.371V128.236H108.944V107.809ZM87.3821 107.809H107.809V128.236H87.3821V107.809ZM65.8203 107.809L86.2472 107.809V128.236H65.8203V107.809ZM44.2584 107.809H64.6854V128.236H44.2584V107.809ZM44.2584 129.371V149.798H64.6854V129.371H44.2584ZM65.8203 129.371V149.798H86.2472V129.371H65.8203ZM87.3821 129.371V149.798H107.809V129.371H87.3821ZM108.944 129.371V149.798H129.371V129.371H108.944ZM130.506 129.371V149.798H150.933V129.371H130.506ZM152.067 129.371V149.798H172.494V129.371H152.067ZM173.629 129.371V149.798H194.056V129.371H173.629ZM195.191 129.371V149.798H215.618V129.371H195.191ZM216.753 129.371V149.798H237.18V129.371H216.753ZM238.315 129.371V149.798H258.742V129.371H238.315ZM64.6854 257.607H44.2584L44.2584 237.18H64.6854V257.607ZM86.2472 257.607H65.8203V237.18H86.2472V257.607ZM107.809 257.607H87.3821V237.18H107.809V257.607ZM129.371 257.607H108.944V237.18H129.371V257.607ZM150.933 257.607H130.506V237.18H150.933V257.607ZM172.494 257.607H152.067V237.18H172.494V257.607ZM194.056 257.607H173.629V237.18H194.056V257.607ZM215.618 257.607H195.191V237.18H215.618V257.607ZM237.18 257.607H216.753V237.18H237.18V257.607ZM258.742 257.607H238.315V237.18H258.742V257.607ZM258.742 236.045V215.618H238.315V236.045H258.742ZM237.18 236.045V215.618H216.753V236.045H237.18ZM215.618 236.045V215.618H195.191V236.045H215.618ZM194.056 236.045V215.618H173.629V236.045H194.056ZM172.494 236.045V215.618H152.067V236.045H172.494ZM150.933 236.045V215.618H130.506V236.045H150.933ZM129.371 236.045V215.618H108.944V236.045H129.371ZM107.809 236.045V215.618H87.3821V236.045H107.809ZM86.2472 236.045V215.618H65.8203V236.045H86.2472ZM64.6854 236.045V215.618H44.2584V236.045H64.6854ZM64.6854 214.483H44.2584V194.056H64.6854V214.483ZM86.2472 214.483H65.8203V194.056H86.2472V214.483ZM107.809 214.483H87.3821V194.056H107.809V214.483ZM129.371 214.483H108.944V194.056H129.371V214.483ZM150.933 214.483H130.506V194.056H150.933V214.483ZM172.494 214.483H152.067V194.056H172.494V214.483ZM194.056 214.483H173.629V194.056H194.056V214.483ZM215.618 214.483H195.191V194.056H215.618V214.483ZM237.18 214.483H216.753V194.056H237.18V214.483ZM258.742 214.483H238.315V194.056H258.742V214.483ZM258.742 192.921V172.494H238.315V192.921H258.742ZM237.18 192.921V172.494H216.753V192.921H237.18ZM215.618 192.921V172.494H195.191V192.921H215.618ZM194.056 192.921V172.494H173.629V192.921H194.056ZM172.494 192.921V172.494H152.067V192.921H172.494ZM150.933 192.921V172.494H130.506V192.921H150.933ZM129.371 192.921V172.494H108.944V192.921H129.371ZM107.809 192.921V172.494H87.3821V192.921H107.809ZM86.2472 192.921V172.494H65.8203V192.921H86.2472ZM64.6854 192.921V172.494H44.2584V192.921H64.6854ZM64.6854 171.359H44.2584V150.932H64.6854V171.359ZM86.2472 171.359H65.8203V150.932H86.2472V171.359ZM107.809 171.359H87.3821V150.932H107.809V171.359ZM129.371 171.359H108.944V150.932H129.371V171.359ZM150.933 171.359H130.506V150.932H150.933V171.359ZM172.494 171.359H152.067V150.932H172.494V171.359ZM194.056 171.359H173.629V150.932H194.056V171.359ZM215.618 171.359H195.191V150.932H215.618V171.359ZM237.18 171.359H216.753V150.932H237.18V171.359ZM258.742 171.359H238.315V150.932H258.742V171.359Z" fill="url(#paint0_radial_599_7428)"/>
<defs>
<radialGradient id="paint0_radial_599_7428" cx="0" cy="0" r="1" gradientUnits="userSpaceOnUse" gradientTransform="translate(151.5 151.5) rotate(90) scale(151.5)">
<stop stop-color="#C89979"/>
<stop offset="0.773" stop-color="#C89979" stop-opacity="0"/>
</radialGradient>
</defs>
</svg>
